ffmpeg version 3.4.8-0ubuntu0.2 Copyright (c) 2000-2020 the FFmpeg developers
  built with gcc 7 (Ubuntu 7.5.0-3ubuntu1~18.04)
  configuration: --prefix=/usr --extra-version=0ubuntu0.2 --toolchain=hardened --libdir=/usr/lib/x86_64-linux-gnu --incdir=/usr/include/x86_64-linux-gnu --enable-gpl --disable-stripping --enable-avresample --enable-avisynth --enable-gnutls --enable-ladspa --enable-libass --enable-libbluray --enable-libbs2b --enable-libcaca --enable-libcdio --enable-libflite --enable-libfontconfig --enable-libfreetype --enable-libfribidi --enable-libgme --enable-libgsm --enable-libmp3lame --enable-libmysofa --enable-libopenjpeg --enable-libopenmpt --enable-libopus --enable-libpulse --enable-librubberband --enable-librsvg --enable-libshine --enable-libsnappy --enable-libsoxr --enable-libspeex --enable-libssh --enable-libtheora --enable-libtwolame --enable-libvorbis --enable-libvpx --enable-libwavpack --enable-libwebp --enable-libx265 --enable-libxml2 --enable-libxvid --enable-libzmq --enable-libzvbi --enable-omx --enable-openal --enable-opengl --enable-sdl2 --enable-libdc1394 --enable-libdrm --enable-libiec61883 --enable-chromaprint --enable-frei0r --enable-libopencv --enable-libx264 --enable-shared
  libavutil      55. 78.100 / 55. 78.100
  libavcodec     57.107.100 / 57.107.100
  libavformat    57. 83.100 / 57. 83.100
  libavdevice    57. 10.100 / 57. 10.100
  libavfilter     6.107.100 /  6.107.100
  libavresample   3.  7.  0 /  3.  7.  0
  libswscale      4.  8.100 /  4.  8.100
  libswresample   2.  9.100 /  2.  9.100
  libpostproc    54.  7.100 / 54.  7.100
[rawvideo @ 0x562d8f2a0a20] Estimating duration from bitrate, this may be inaccurate
Input #0, rawvideo, from '../../SVC-Encoder-20220109T061506Z-001/SVC-Encoder/Dataset/RollerCoaster/6f_2x2/tile_yuv/f5_t1_480x480.yuv':
  Duration: 00:00:10.00, start: 0.000000, bitrate: 82944 kb/s
    Stream #0:0: Video: rawvideo (I420 / 0x30323449), yuv420p, 480x480, 82944 kb/s, 30 tbr, 30 tbn, 30 tbc
Stream mapping:
  Stream #0:0 -> #0:0 (rawvideo (native) -> h264 (libx264))
Press [q] to stop, [?] for help
[libx264 @ 0x562d8f2adc60] using cpu capabilities: MMX2 SSE2Fast LZCNT SSSE3 SSE4.2 AVX
[libx264 @ 0x562d8f2adc60] profile High, level 3.0
Output #0, rawvideo, to 'RollerCoaster_f5_t1_480x480_x264_QP_28.h264':
  Metadata:
    encoder         : Lavf57.83.100
    Stream #0:0: Video: h264 (libx264), yuv420p, 480x480, q=-1--1, 30 fps, 30 tbn, 30 tbc
    Metadata:
      encoder         : Lavc57.107.100 libx264
    Side data:
      cpb: bitrate max/min/avg: 0/0/0 buffer size: 0 vbv_delay: -1
frame=  146 fps=0.0 q=34.0 PSNR=Y:nan U:nan V:nan *:nan size=      94kB time=00:00:03.43 bitrate= 224.6kbits/s speed=6.85x    frame=  270 fps=270 q=34.0 PSNR=Y:nan U:nan V:nan *:nan size=     178kB time=00:00:07.56 bitrate= 192.5kbits/s speed=7.56x    frame=  300 fps=241 q=34.0 LPSNR=Y:inf U:inf V:inf *:inf size=     224kB time=00:00:09.93 bitrate= 185.0kbits/s speed=7.97x    
video:224kB audio:0kB subtitle:0kB other streams:0kB global headers:0kB muxing overhead: 0.000000%
[libx264 @ 0x562d8f2adc60] frame I:2     Avg QP:27.16  size: 13342  PSNR Mean Y:41.67 U:47.71 V:50.16 Avg:43.03 Global:42.76
[libx264 @ 0x562d8f2adc60] frame P:77    Avg QP:27.82  size:  1960  PSNR Mean Y:40.03 U:47.36 V:49.40 Avg:41.47 Global:41.44
[libx264 @ 0x562d8f2adc60] frame B:221   Avg QP:33.43  size:   236  PSNR Mean Y:39.81 U:47.41 V:49.45 Avg:41.27 Global:41.26
[libx264 @ 0x562d8f2adc60] consecutive B-frames:  1.0%  2.0%  1.0% 96.0%
[libx264 @ 0x562d8f2adc60] mb I  I16..4: 43.4% 51.2%  5.4%
[libx264 @ 0x562d8f2adc60] mb P  I16..4:  0.9%  0.6%  0.1%  P16..4: 23.9% 10.5%  4.1%  0.0%  0.0%    skip:59.9%
[libx264 @ 0x562d8f2adc60] mb B  I16..4:  0.0%  0.0%  0.0%  B16..8: 17.6%  0.6%  0.1%  direct: 0.1%  skip:81.6%  L0:31.1% L1:67.6% BI: 1.3%
[libx264 @ 0x562d8f2adc60] 8x8 transform intra:46.2% inter:60.2%
[libx264 @ 0x562d8f2adc60] coded y,uvDC,uvAC intra: 40.1% 43.4% 3.6% inter: 3.6% 1.3% 0.0%
[libx264 @ 0x562d8f2adc60] i16 v,h,dc,p: 51% 29% 11%  9%
[libx264 @ 0x562d8f2adc60] i8 v,h,dc,ddl,ddr,vr,hd,vl,hu:  4% 13% 34% 11%  5%  3%  6%  5% 20%
[libx264 @ 0x562d8f2adc60] i4 v,h,dc,ddl,ddr,vr,hd,vl,hu:  9% 12% 32% 16%  5%  7%  4%  5% 11%
[libx264 @ 0x562d8f2adc60] i8c dc,h,v,p: 64% 22% 10%  5%
[libx264 @ 0x562d8f2adc60] Weighted P-Frames: Y:1.3% UV:0.0%
[libx264 @ 0x562d8f2adc60] ref P L0: 61.6% 23.1% 12.1%  3.3%  0.0%
[libx264 @ 0x562d8f2adc60] ref B L0: 83.6% 14.3%  2.1%
[libx264 @ 0x562d8f2adc60] ref B L1: 88.8% 11.2%
[libx264 @ 0x562d8f2adc60] PSNR Mean Y:39.877 U:47.398 V:49.444 Avg:41.335 Global:41.310 kb/s:183.81
